<?xml version="1.0" ?><!DOCTYPE svg  PUBLIC '-//W3C//DTD SVG 1.1//EN'  'http://www.w3.org/Graphics/SVG/1.1/DTD/svg11.dtd'><svg enable-background="new 0 0 128 128" height="128px" version="1.1" viewBox="0 0 128 128" width="128px" xml:space="preserve" xmlns="http://www.w3.org/2000/svg" xmlns:xlink="http://www.w3.org/1999/xlink"><g id="Layer_2"/><g id="Layer_1"><g><path d="    M36.396,98.596c0,0,41.15,5.274,50.029,5.274S93.7,92.937,93.7,92.937s-45.231,0-51.603,0c0,7.591-10.303,7.386-10.303-0.023    c0-7.411,0-45.645,0-52.965c0-7.319-0.972-9.459-3.999-9.459c-3.026,0-4.439,2.622-4.439,9.58l8.083,0.021" fill="none" stroke="#231F20" stroke-linecap="round" stroke-linejoin="round" stroke-miterlimit="10" stroke-width="5"/><path d="    M27.999,30.038c0,0,51.952,0,54.664,0c2.711,0,6.608,1.627,6.608,7.998s0,16.402,0,16.402" fill="none" stroke="#231F20" stroke-linecap="round" stroke-linejoin="round" stroke-miterlimit="10" stroke-width="5"/><line fill="none" stroke="#231F20" stroke-linecap="round" stroke-linejoin="round" stroke-miterlimit="10" stroke-width="5" x1="42.098" x2="58.364" y1="67.994" y2="67.994"/><line fill="none" stroke="#231F20" stroke-linecap="round" stroke-linejoin="round" stroke-miterlimit="10" stroke-width="5" x1="42.098" x2="72.462" y1="56.065" y2="56.065"/><line fill="none" stroke="#231F20" stroke-linecap="round" stroke-linejoin="round" stroke-miterlimit="10" stroke-width="5" x1="42.098" x2="72.462" y1="44.136" y2="44.136"/><line fill="none" stroke="#231F20" stroke-linecap="round" stroke-linejoin="round" stroke-miterlimit="10" stroke-width="5" x1="89.271" x2="89.271" y1="75.043" y2="92.395"/><path d="    M77.478,72.807c16.199,7.659,29.017-5.836,32.029-14.441c-10.875,1.484-14.215-3.787-24.233-0.267    c-10.031,3.524-9.249,12.873-9.249,12.873l-5.558,2.169" fill="none" stroke="#231F20" stroke-linecap="round" stroke-linejoin="round" stroke-miterlimit="10" stroke-width="5"/></g></g></svg>