<?xml version="1.0" ?><svg id="Layer_1" style="enable-background:new 0 0 48 48;" version="1.1" viewBox="0 0 48 48" xml:space="preserve" xmlns="http://www.w3.org/2000/svg" xmlns:xlink="http://www.w3.org/1999/xlink"><g><path d="M43,46H5c-1.7,0-3-1.3-3-3V15c0-1.7,1.3-3,3-3h8.5c1.4,0,2.6,0.9,2.9,2.3l0.2,1c0.2,0.5,0.6,0.8,1,0.8H43c1.7,0,3,1.3,3,3   v24C46,44.7,44.7,46,43,46z M5,14c-0.6,0-1,0.4-1,1v28c0,0.6,0.4,1,1,1h38c0.6,0,1-0.4,1-1V19c0-0.6-0.4-1-1-1H17.6   c-1.3,0-2.5-0.9-2.9-2.2l0-0.1l-0.2-1C14.3,14.3,14,14,13.5,14H5z"/></g></svg>